<?xml version="1.0" encoding="UTF-8"?>
<svg width="186px" height="31px" viewBox="0 0 186 31" version="1.1" xmlns="http://www.w3.org/2000/svg" xmlns:xlink="http://www.w3.org/1999/xlink">
  <g>
    <path d="M32.5245902,15.5 C32.5245902,23.4514124 26.2401778,30.007533 18.1427187,30.8949153 C17.5240777,30.9649718 16.8993115,31 16.2622951,31 C16.1214164,31 15.9744126,31 15.833534,30.994162 C7.05005711,30.7781544 0,23.9242938 0,15.5 C0,6.94143126 7.28281313,0 16.2622951,0 C25.241777,0 32.5245902,6.94143126 32.5245902,15.5 Z" id="Shape" fill="#F75050" fill-rule="nonzero"></path>
    <path d="M18.0692168,6.45833333 C18.0692168,7.64490376 17.055491,8.61111111 15.8105647,8.61111111 C14.5656383,8.61111111 13.5519126,7.64490376 13.5519126,6.45833333 C13.5519126,5.2717629 14.5597101,4.30555556 15.8105647,4.30555556 C17.0614192,4.30555556 18.0692168,5.26611257 18.0692168,6.45833333 Z" id="Shape" fill="#FFFFFF" fill-rule="nonzero"></path>
    <path d="M28.007286,9.47222222 L28.007286,10.9865663 C28.007286,10.9865663 24.5213996,11.8756698 20.3199891,12.6844672 C18.8889411,13.9005314 15.1706622,17.4798902 15.1706622,21.8737825 C15.1706622,26.4971208 17.7147477,29.9617565 18.4791965,30.8967493 C17.8615219,30.9655831 17.2377317,31 16.6017103,31 C16.4610518,31 16.3142776,31 16.173619,30.9942638 C15.7027186,30.1969387 13.5744932,26.4225508 12.9873966,22.2294239 C12.3697219,17.8470039 12.8956627,14.1586583 12.9751654,13.6424046 C9.09788122,13.808753 5.19001911,13.5793069 5.19001911,13.5793069 L4.51730419,12.0592267 C4.51730419,12.0592267 10.5962008,11.9789206 16.7790625,11.3020547 C22.9680397,10.6194526 28.007286,9.47222222 28.007286,9.47222222 Z" id="Shape" fill="#FFFFFF" fill-rule="nonzero"></path>
    <path d="M50.6243596,18.2734375 C50.6243596,20.164072 50.1556143,21.6171824 49.2181096,22.6328125 C48.2806049,23.6484426 46.9368684,24.15625 45.1868596,24.15625 C43.4368509,24.15625 42.0931143,23.6484426 41.1556096,22.6328125 C40.2181049,21.6171824 39.7493596,20.1588637 39.7493596,18.2578125 C39.7493596,16.3567613 40.219407,14.9049529 41.1595159,13.9023438 C42.0996247,12.8997346 43.4472675,12.3984375 45.2024846,12.3984375 C46.9577017,12.3984375 48.3001362,12.9036408 49.2298284,13.9140625 C50.1595205,14.9244842 50.6243596,16.3775947 50.6243596,18.2734375 Z M42.2884221,18.2734375 C42.2884221,19.5494855 42.5306072,20.5104134 43.0149846,21.15625 C43.4993621,21.8020866 44.2233131,22.125 45.1868596,22.125 C47.119161,22.125 48.0852971,20.8411587 48.0852971,18.2734375 C48.0852971,15.700508 47.1243692,14.4140625 45.2024846,14.4140625 C44.2389381,14.4140625 43.5123829,14.738278 43.0227971,15.3867188 C42.5332113,16.0351595 42.2884221,16.9973895 42.2884221,18.2734375 Z M54.8977971,15.265625 L54.8977971,18.4609375 C54.8977971,19.221358 55.2493561,19.6015625 55.9524846,19.6015625 C56.4108203,19.6015625 56.8365972,19.5494797 57.2298284,19.4453125 C57.6230595,19.3411453 58.020191,19.20573 58.4212346,19.0390625 L58.4212346,15.265625 L60.8040471,15.265625 L60.8040471,24 L58.4212346,24 L58.4212346,20.53125 C57.8691485,20.8229181 57.3561328,21.0286452 56.8821721,21.1484375 C56.4082114,21.2682298 55.9498827,21.328125 55.5071721,21.328125 C54.5540424,21.328125 53.8170706,21.0846379 53.2962346,20.5976562 C52.7753987,20.1106746 52.5149846,19.4166712 52.5149846,18.515625 L52.5149846,15.265625 L54.8977971,15.265625 Z M66.9134221,16.796875 C66.4082113,16.796875 66.0123819,16.9570296 65.7259221,17.2773438 C65.4394624,17.5976579 65.2754015,18.0520804 65.2337346,18.640625 L68.5774846,18.640625 C68.5670679,18.0520804 68.4134236,17.5976579 68.1165471,17.2773438 C67.8196706,16.9570296 67.418633,16.796875 66.9134221,16.796875 Z M67.2493596,24.15625 C65.8431026,24.15625 64.7441553,23.768233 63.9524846,22.9921875 C63.160814,22.216142 62.7649846,21.1171946 62.7649846,19.6953125 C62.7649846,18.2317635 63.1308664,17.1002644 63.8626409,16.3007812 C64.5944154,15.5012981 65.606124,15.1015625 66.8977971,15.1015625 C68.1321783,15.1015625 69.0931062,15.4531215 69.7806096,16.15625 C70.4681131,16.8593785 70.8118596,17.830723 70.8118596,19.0703125 L70.8118596,20.2265625 L65.1790471,20.2265625 C65.2050889,20.9036492 65.4056078,21.4322898 65.7806096,21.8125 C66.1556115,22.1927102 66.6816479,22.3828125 67.3587346,22.3828125 C67.8847789,22.3828125 68.3821698,22.3281255 68.8509221,22.21875 C69.3196745,22.1093745 69.8092529,21.934897 70.3196721,21.6953125 L70.3196721,23.5390625 C69.9030034,23.7473969 69.4576953,23.9023432 68.9837346,24.0039062 C68.5097739,24.1054693 67.9316547,24.15625 67.2493596,24.15625 Z M75.1321721,15.265625 L75.1321721,18.625 L78.4602971,18.625 L78.4602971,15.265625 L80.8431096,15.265625 L80.8431096,24 L78.4602971,24 L78.4602971,20.3984375 L75.1321721,20.3984375 L75.1321721,24 L72.7493596,24 L72.7493596,15.265625 L75.1321721,15.265625 Z M85.7259221,18.640625 L87.4056096,18.640625 C88.7493663,18.640625 89.7441481,18.8541645 90.3899846,19.28125 C91.0358212,19.7083355 91.3587346,20.3541623 91.3587346,21.21875 C91.3587346,23.0729259 90.0722892,24 87.4993596,24 L83.3431096,24 L83.3431096,15.265625 L85.7259221,15.265625 L85.7259221,18.640625 Z M88.9759221,21.25 C88.9759221,20.9114566 88.8405068,20.6666674 88.5696721,20.515625 C88.2988374,20.3645826 87.8951956,20.2890625 87.3587346,20.2890625 L85.7259221,20.2890625 L85.7259221,22.3515625 L87.3899846,22.3515625 C88.4472816,22.3515625 88.9759221,21.9843787 88.9759221,21.25 Z M97.5071721,12.578125 L99.6868596,12.578125 L99.6868596,18.09375 L99.6556096,19.5703125 L99.5774846,21.25 L99.6243596,21.25 L104.897797,12.578125 L107.796235,12.578125 L107.796235,24 L105.639985,24 L105.639985,18.515625 C105.639985,17.7812463 105.686859,16.6927155 105.78061,15.25 L105.71811,15.25 L100.421235,24 L97.5071721,24 L97.5071721,12.578125 Z M112.87436,15.265625 L112.87436,18.625 L116.202485,18.625 L116.202485,15.265625 L118.585297,15.265625 L118.585297,24 L116.202485,24 L116.202485,20.3984375 L112.87436,20.3984375 L112.87436,24 L110.491547,24 L110.491547,15.265625 L112.87436,15.265625 Z M128.31186,15.265625 L128.31186,17.0546875 L125.452485,17.0546875 L125.452485,24 L123.069672,24 L123.069672,17.0546875 L120.202485,17.0546875 L120.202485,15.265625 L128.31186,15.265625 Z M133.554047,16.796875 C133.048836,16.796875 132.653007,16.9570296 132.366547,17.2773438 C132.080087,17.5976579 131.916027,18.0520804 131.87436,18.640625 L135.21811,18.640625 C135.207693,18.0520804 135.054049,17.5976579 134.757172,17.2773438 C134.460296,16.9570296 134.059258,16.796875 133.554047,16.796875 Z M133.889985,24.15625 C132.483728,24.15625 131.38478,23.768233 130.59311,22.9921875 C129.801439,22.216142 129.40561,21.1171946 129.40561,19.6953125 C129.40561,18.2317635 129.771491,17.1002644 130.503266,16.3007812 C131.23504,15.5012981 132.246749,15.1015625 133.538422,15.1015625 C134.772803,15.1015625 135.733731,15.4531215 136.421235,16.15625 C137.108738,16.8593785 137.452485,17.830723 137.452485,19.0703125 L137.452485,20.2265625 L131.819672,20.2265625 C131.845714,20.9036492 132.046233,21.4322898 132.421235,21.8125 C132.796237,22.1927102 133.322273,22.3828125 133.99936,22.3828125 C134.525404,22.3828125 135.022795,22.3281255 135.491547,22.21875 C135.960299,22.1093745 136.449878,21.934897 136.960297,21.6953125 L136.960297,23.5390625 C136.543628,23.7473969 136.09832,23.9023432 135.62436,24.0039062 C135.150399,24.1054693 134.57228,24.15625 133.889985,24.15625 Z M144.18686,24.15625 C143.160813,24.15625 142.356133,23.7838579 141.772797,23.0390625 L141.647797,23.0390625 C141.731131,23.7682328 141.772797,24.1901036 141.772797,24.3046875 L141.772797,27.84375 L139.389985,27.84375 L139.389985,15.265625 L141.327485,15.265625 L141.663422,16.3984375 L141.772797,16.3984375 C142.330092,15.5338498 143.155604,15.1015625 144.24936,15.1015625 C145.280615,15.1015625 146.087898,15.499996 146.671235,16.296875 C147.254571,17.093754 147.546235,18.2005137 147.546235,19.6171875 C147.546235,20.5494838 147.409517,21.3593716 147.136078,22.046875 C146.86264,22.7343784 146.47332,23.2578107 145.96811,23.6171875 C145.462899,23.9765643 144.869155,24.15625 144.18686,24.15625 Z M143.483735,17.0078125 C142.89519,17.0078125 142.465507,17.1888003 142.194672,17.5507812 C141.923837,17.9127622 141.783214,18.5104125 141.772797,19.34375 L141.772797,19.6015625 C141.772797,20.5390672 141.912119,21.2109355 142.190766,21.6171875 C142.469413,22.0234395 142.910815,22.2265625 143.514985,22.2265625 C144.582698,22.2265625 145.116547,21.346363 145.116547,19.5859375 C145.116547,18.7265582 144.985038,18.0820334 144.722016,17.6523438 C144.458994,17.2226541 144.046237,17.0078125 143.483735,17.0078125 Z M153.132172,16.796875 C152.626961,16.796875 152.231132,16.9570296 151.944672,17.2773438 C151.658212,17.5976579 151.494152,18.0520804 151.452485,18.640625 L154.796235,18.640625 C154.785818,18.0520804 154.632174,17.5976579 154.335297,17.2773438 C154.038421,16.9570296 153.637383,16.796875 153.132172,16.796875 Z M153.46811,24.15625 C152.061853,24.15625 150.962905,23.768233 150.171235,22.9921875 C149.379564,22.216142 148.983735,21.1171946 148.983735,19.6953125 C148.983735,18.2317635 149.349616,17.1002644 150.081391,16.3007812 C150.813165,15.5012981 151.824874,15.1015625 153.116547,15.1015625 C154.350928,15.1015625 155.311856,15.4531215 155.99936,16.15625 C156.686863,16.8593785 157.03061,17.830723 157.03061,19.0703125 L157.03061,20.2265625 L151.397797,20.2265625 C151.423839,20.9036492 151.624358,21.4322898 151.99936,21.8125 C152.374362,22.1927102 152.900398,22.3828125 153.577485,22.3828125 C154.103529,22.3828125 154.60092,22.3281255 155.069672,22.21875 C155.538424,22.1093745 156.028003,21.934897 156.538422,21.6953125 L156.538422,23.5390625 C156.121753,23.7473969 155.676445,23.9023432 155.202485,24.0039062 C154.728524,24.1054693 154.150405,24.15625 153.46811,24.15625 Z M162.514985,24.15625 C159.796221,24.15625 158.43686,22.6640774 158.43686,19.6796875 C158.43686,18.1953051 158.806648,17.0612018 159.546235,16.2773438 C160.285822,15.4934857 161.345707,15.1015625 162.725922,15.1015625 C163.736344,15.1015625 164.642585,15.2994772 165.444672,15.6953125 L164.741547,17.5390625 C164.366545,17.3880201 164.01759,17.2643234 163.694672,17.1679688 C163.371754,17.0716141 163.04884,17.0234375 162.725922,17.0234375 C161.486333,17.0234375 160.866547,17.903637 160.866547,19.6640625 C160.866547,21.3724044 161.486333,22.2265625 162.725922,22.2265625 C163.184258,22.2265625 163.608733,22.1653652 163.99936,22.0429688 C164.389987,21.9205723 164.780608,21.729168 165.171235,21.46875 L165.171235,23.5078125 C164.785816,23.7526054 164.396497,23.9218745 164.003266,24.015625 C163.610035,24.1093755 163.113946,24.15625 162.514985,24.15625 Z M169.577485,15.265625 L169.577485,18.625 L172.90561,18.625 L172.90561,15.265625 L175.288422,15.265625 L175.288422,24 L172.90561,24 L172.90561,20.3984375 L169.577485,20.3984375 L169.577485,24 L167.194672,24 L167.194672,15.265625 L169.577485,15.265625 Z M179.68686,19.6171875 C179.68686,20.4817752 179.828785,21.1354145 180.112641,21.578125 C180.396496,22.0208355 180.858731,22.2421875 181.49936,22.2421875 C182.134779,22.2421875 182.591806,22.0221376 182.870453,21.5820313 C183.149101,21.1419249 183.288422,20.4869835 183.288422,19.6171875 C183.288422,18.7525998 183.147799,18.1041688 182.866547,17.671875 C182.585296,17.2395812 182.124363,17.0234375 181.483735,17.0234375 C180.848315,17.0234375 180.389986,17.2382791 180.108735,17.6679688 C179.827483,18.0976584 179.68686,18.7473915 179.68686,19.6171875 Z M185.725922,19.6171875 C185.725922,21.0390696 185.350926,22.1510377 184.600922,22.953125 C183.850918,23.7552123 182.806658,24.15625 181.46811,24.15625 C180.629564,24.15625 179.889988,23.9726581 179.24936,23.6054688 C178.608731,23.2382794 178.116549,22.7109409 177.772797,22.0234375 C177.429045,21.3359341 177.257172,20.5338588 177.257172,19.6171875 C177.257172,18.190097 177.629564,17.0807331 178.37436,16.2890625 C179.119155,15.4973919 180.16602,15.1015625 181.514985,15.1015625 C182.35353,15.1015625 183.093106,15.2838523 183.733735,15.6484375 C184.374363,16.0130227 184.866545,16.5364549 185.210297,17.21875 C185.554049,17.9010451 185.725922,18.7005162 185.725922,19.6171875 Z" id="Очень-Интересно" fill="#FFFFFF"></path>
  </g>
</svg>
